<?xml version="1.0" encoding="UTF-8" standalone="no"?>
<svg
   xmlns:dc="http://purl.org/dc/elements/1.1/"
   xmlns:cc="http://creativecommons.org/ns#"
   xmlns:rdf="http://www.w3.org/1999/02/22-rdf-syntax-ns#"
   xmlns:svg="http://www.w3.org/2000/svg"
   xmlns="http://www.w3.org/2000/svg"
   viewBox="0 0 1122.52 793.70667"
   height="793.70667"
   width="1122.52"
   xml:space="preserve"
   id="svg2"
   version="1.1"><metadata
     id="metadata8"><rdf:RDF><cc:Work
         rdf:about=""><dc:format>image/svg+xml</dc:format><dc:type
           rdf:resource="http://purl.org/dc/dcmitype/StillImage" /></cc:Work></rdf:RDF></metadata><defs
     id="defs6"><clipPath
       id="clipPath18"
       clipPathUnits="userSpaceOnUse"><path
         id="path16"
         d="M 0,595.28 H 841.89 V 0 H 0 Z" /></clipPath></defs><g
     transform="matrix(1.3333333,0,0,-1.3333333,0,793.70667)"
     id="g10"><g
       id="g12"><g
         clip-path="url(#clipPath18)"
         id="g14"><g
           transform="translate(597.7588,422.2876)"
           id="g20"><path
             id="path22"
             style="fill:#ffffff;fill-opacity:1;fill-rule:nonzero;stroke:none"
             d="m 0,0 c 27.251,1.216 39.996,-18.081 35.508,-36.237 0,0 -36.449,17.539 -113.556,-0.543 C -60.096,-22.293 -28.348,-1.291 0,0" /></g><g
           transform="translate(481.5674,352.2119)"
           id="g24"><path
             id="path26"
             style="fill:#ffffff;fill-opacity:1;fill-rule:nonzero;stroke:none"
             d="M 0,0 C -21.133,0 -29.878,-3.751 -39.112,-19.142 L -85.08,-95.881 h -2.404 L -96.186,0 h -53.137 c -31.351,0 -40.742,-7.29 -46.529,-27.426 l -33.361,-116.284 h 46.125 l 29.978,104.249 h 3.474 l 9.576,-104.249 h 37.415 c 23.731,0 34.291,1.963 44.577,19.059 l 51.11,85.19 h 3.234 L -33.759,-143.71 H 24.043 L 65.366,0 Z m -355.661,0 c -18.929,0 -26.588,-4.968 -31.693,-15.299 l -7.944,-15.971 h 69.652 l -32.347,-112.44 h 57.874 l 32.449,112.44 h 26.781 c 25.61,0 35.066,7.64 49.663,31.27 z" /></g><g
           transform="translate(456.6289,459.9058)"
           id="g28"><path
             id="path30"
             style="fill:#ffffff;fill-opacity:1;fill-rule:nonzero;stroke:none"
             d="m 0,0 c 48.346,0 73.873,-20.994 73.873,-42.411 0,-21.859 -35.13,-45.11 -76.748,-48.16 0,0 5.76,4.155 12.027,11.739 31.922,38.578 -43.996,56.032 -150.484,15.04 C -115.583,-36.043 -58.897,0 0,0" /></g></g></g></g></svg>